<svg fill="#ABB2BF" xmlns="http://www.w3.org/2000/svg"  viewBox="0 0 50 50" width="20px" height="20px"><path d="M 9 4 C 6.2504839 4 4 6.2504839 4 9 L 4 41 C 4 43.749516 6.2504839 46 9 46 L 41 46 C 43.749516 46 46 43.749516 46 41 L 46 9 C 46 6.2504839 43.749516 4 41 4 L 9 4 z M 9 6 L 41 6 C 42.668484 6 44 7.3315161 44 9 L 44 41 C 44 42.668484 42.668484 44 41 44 L 9 44 C 7.3315161 44 6 42.668484 6 41 L 6 9 C 6 7.3315161 7.3315161 6 9 6 z M 28.564453 8.0058594 C 25.354118 7.9889053 22.209008 9.5957571 20.408203 12.523438 C 18.536275 15.567077 14.441008 22.339979 12.449219 25.552734 C 11.591516 26.936078 12.013659 28.777316 13.378906 29.65625 L 15.558594 31.058594 C 14.895153 32.143574 12.937714 35.347066 12.583984 35.917969 L 12.582031 35.921875 L 12.580078 35.925781 C 11.441094 37.804642 12.046879 40.280912 13.925781 41.419922 C 15.801759 42.557159 18.27271 41.954151 19.414062 40.082031 L 19.416016 40.078125 C 20.122383 38.938444 21.70885 36.33893 22.289062 35.388672 L 24.050781 36.521484 C 25.428315 37.407574 27.293585 37.010368 28.1875 35.636719 C 30.552562 32.000862 35.707655 23.92283 36.587891 22.492188 C 39.333022 18.03107 37.938902 12.158763 33.480469 9.4121094 C 32.36592 8.7254828 31.161435 8.2988556 29.941406 8.1132812 C 29.483895 8.0436909 29.023072 8.0082814 28.564453 8.0058594 z M 28.546875 9.9960938 C 28.90857 9.9985361 29.271663 10.026348 29.632812 10.082031 C 30.595878 10.230519 31.545236 10.570361 32.429688 11.115234 C 35.387704 12.937544 36.63079 16.457688 35.6875 19.632812 C 35.425239 19.436103 35.079828 19.185594 34.578125 18.871094 C 33.484638 18.185624 31.754118 17.226227 29.152344 16.083984 C 26.462028 14.902833 23.604121 14.354439 21.792969 14.095703 C 21.874483 13.962806 22.036719 13.693575 22.111328 13.572266 C 23.540585 11.248633 26.015009 9.978997 28.546875 9.9960938 z M 20.650391 15.964844 C 22.114464 16.133778 25.415813 16.628824 28.347656 17.916016 C 30.870882 19.023773 32.515362 19.939376 33.515625 20.566406 C 34.515888 21.193437 34.822266 21.484375 34.822266 21.484375 L 34.832031 21.494141 L 34.845703 21.505859 C 34.376978 22.265899 32.674115 24.944389 30.787109 27.894531 C 29.816146 27.31456 27.754632 26.110463 25.400391 25.083984 C 21.927699 23.570247 18.627553 22.592057 16.892578 22.119141 C 18.276728 19.848898 19.453996 17.926269 20.650391 15.964844 z M 15.808594 23.892578 C 17.184041 24.2512 20.80686 25.262766 24.599609 26.916016 C 26.752971 27.854908 28.715083 28.994213 29.703125 29.580078 C 28.54629 31.384047 27.297362 33.334134 26.509766 34.544922 C 26.203388 35.014063 25.604785 35.143436 25.132812 34.839844 L 14.460938 27.974609 C 13.990184 27.671543 13.856093 27.082079 14.150391 26.607422 C 14.568654 25.932763 15.248491 24.807925 15.808594 23.892578 z M 17.240234 32.140625 L 20.607422 34.306641 C 20.043584 35.230001 18.412266 37.902168 17.714844 39.027344 L 17.712891 39.033203 L 17.708984 39.037109 C 17.130082 39.992178 15.91803 40.288 14.962891 39.708984 C 14.007793 39.129994 13.712 37.91803 14.291016 36.962891 C 14.675036 36.342902 16.564827 33.246417 17.240234 32.140625 z"/></svg>